<svg xmlns="http://www.w3.org/2000/svg" viewBox="0 0 254.78 216.75"><defs><style>.a{fill:#221e1f;}.b{fill:#edeced;}.c{fill:#231f20;}.d{fill:#fff;}</style></defs><path class="a" d="M254,205.46a5.09,5.09,0,0,0-3.21-2.17l-4.45-1,2.46-12.09a4.86,4.86,0,0,0-4-5.89l-3.83-.76a5.47,5.47,0,0,0-1.07-.11,4.79,4.79,0,0,0-3.33,1.31c-1.77-2.08-4.5-3.47-8.16-4.11a19.8,19.8,0,0,0-3.29-.3,12.12,12.12,0,0,0-4.69.86,5.08,5.08,0,0,0-3.2-1.78l-4.09-.61a5.66,5.66,0,0,0-.82-.06,5,5,0,0,0-3.87,1.79,5,5,0,0,0-4.06-2.93l-4.1-.52a5.58,5.58,0,0,0-.7,0h0a5.07,5.07,0,0,0-1.46.23,5.24,5.24,0,0,0-2.12-.7l-3.8-.43-.62,0a5,5,0,0,0-2.21.51,5.06,5.06,0,0,0-2.7-1l-3.87-.37a4.78,4.78,0,0,0-.53,0,5,5,0,0,0-3.24,1.16,5.24,5.24,0,0,0-3.61-1.77c-1.69-.14-3.38-.26-5.08-.38l-.41,0h0a4.89,4.89,0,0,0-4.06,2.06c-2-1.7-4.79-2.63-8.45-2.81-2.55-.13-5.1-.23-7.6-.32h-.18a5,5,0,0,0-4,1.91c-2.06-1.8-5-2.75-8.71-2.81h-.28c-4,0-7.09,1.06-9.18,3.16-.11.11-.2.24-.3.35-2-2.05-5-3.45-9.29-3.45h-.36c-4,.09-7.18,1.3-9.36,3.61a11.18,11.18,0,0,0-2.85,6.51,11.48,11.48,0,0,0-1.86-4.85c-2-2.84-5.22-4.28-9.61-4.28-.43,0-.88,0-1.34,0-4.12.27-7.2,1.56-9.17,3.83a9.59,9.59,0,0,0-.69.92,11.42,11.42,0,0,0-7.9-2.67q-1.08,0-2.28.12c-2.57.25-5.16.52-7.71.8l-.2,0a5.3,5.3,0,0,0-2.45,1.07,5.06,5.06,0,0,0-2.18-.5,5.58,5.58,0,0,0-.7,0l-3.86.48a5,5,0,0,0-3.3,1.75l-.14.18a5.13,5.13,0,0,0-3.08-1,5.87,5.87,0,0,0-.83.05c-1.68.24-3.36.48-5,.74a5,5,0,0,0-3.36,1.95,4,4,0,0,0-.37.63,11.28,11.28,0,0,0-5.82-1.42,20.3,20.3,0,0,0-3.26.29c-4.08.72-7,2.33-8.72,4.81a4.8,4.8,0,0,0-.3.48,11,11,0,0,0-5.85-1.57,19,19,0,0,0-3.93.44c-2.5.51-5,1.05-7.51,1.59l-.18.05a4.92,4.92,0,0,0-3.66,5.94l4.53,20.46a4.86,4.86,0,0,0,4.8,3.91,5.79,5.79,0,0,0,1.16-.12c1.2-.27,2.4-.53,3.61-.78a4.82,4.82,0,0,0,3.85-5.91l-.46-2.21a14.76,14.76,0,0,0,4.58-2l.59,3.18a4.94,4.94,0,0,0,4.88,4.2,5.31,5.31,0,0,0,1-.09l3.63-.66a5,5,0,0,0,3.15-1.84,4.85,4.85,0,0,0,2.64.76,5.46,5.46,0,0,0,.9-.07l3.65-.59A5,5,0,0,0,45,209.49a4.93,4.93,0,0,0,1.86.36,5.49,5.49,0,0,0,.8-.06l3.65-.53a5,5,0,0,0,3.25-1.82,5.09,5.09,0,0,0,3,.92,4.68,4.68,0,0,0,.74-.05l4.8-.6a5.07,5.07,0,0,0,2.54-1,5,5,0,0,0,2.09.47l.6,0c2.42-.27,4.88-.53,7.3-.76a14,14,0,0,0,7.77-2.8,4.84,4.84,0,0,0,3.78,1.78l.4,0,3.68-.26a5.07,5.07,0,0,0,3.31-1.48,5,5,0,0,0,3.12,1.06H98l3.67-.19a4.89,4.89,0,0,0,4.73-5.35v-.37l-.1-2c1.53,4.87,5.71,7.76,11.58,7.76h.44a13.32,13.32,0,0,0,7.61-2.27,5,5,0,0,0,3.67,1.58h3.68a5.11,5.11,0,0,0,3.41-1.22,5,5,0,0,0,3.36,1.31l3.67.08h.15a5,5,0,0,0,2.45-.64,5,5,0,0,0,2.53.79l3.68.14h.22a5,5,0,0,0,3.8-1.74,4.89,4.89,0,0,0,3.74,2.12l3.75.22h.36a5.22,5.22,0,0,0,1.81-.32,5.08,5.08,0,0,0,2.07.59l3.67.27a3.31,3.31,0,0,0,.44,0,5,5,0,0,0,3.13-1.08,5.2,5.2,0,0,0,3.4,1.65c1.61.14,3.22.3,4.82.45l.55,0a5,5,0,0,0,2.15-.48,5.16,5.16,0,0,0,2.54,1l3.59.4a4.82,4.82,0,0,0,.65,0,4.77,4.77,0,0,0,4.21-2.4,5,5,0,0,0,4.19,3.48c2,.26,4,.54,6.07.83a5.25,5.25,0,0,0,.79.06,4.94,4.94,0,0,0,3.85-1.8,4.88,4.88,0,0,0,3.83,3l3.64.6a5.88,5.88,0,0,0,.92.07,4.9,4.9,0,0,0,2.66-.75,5,5,0,0,0,3.12,1.83l3.63.66a5.5,5.5,0,0,0,1,.09,4.9,4.9,0,0,0,1.68-.29,5,5,0,0,0,2.37,1.16c4.26.83,8.56,1.72,12.77,2.65a6,6,0,0,0,1.19.13,4.84,4.84,0,0,0,4.76-3.92l.55-2.47.24-1.12A5,5,0,0,0,254,205.46ZM9.46,212.74H9.39a1.2,1.2,0,0,0,.37,0Zm5.93-24.39h0Zm4.54,1.54h0Zm7.74,19.17-.1,0a1.29,1.29,0,0,0,.34,0Zm5-24.68c.28,0,.57,0,.83,0h0C33.28,184.34,33,184.36,32.71,184.38Zm5.35,22.85H38a1.3,1.3,0,0,0,.34,0A1.06,1.06,0,0,1,38.06,207.23Zm.88-20.54c.09.11.16.23.24.35h0C39.1,186.93,39,186.8,38.94,186.69Zm7.92,19.16h0a.75.75,0,0,0,.26,0A.82.82,0,0,1,46.86,205.85Zm1.85-23.45h0Zm8.81,22h-.09a1.6,1.6,0,0,0,.31,0ZM59.83,181h.22l.13,0A2,2,0,0,0,59.83,181Zm.51,0h.07v0Zm7.35,22.16-.15,0a1.58,1.58,0,0,0,.31,0Zm6.68-23.7.5,0h-.5Zm12.77,21.89a1,1,0,0,1-.18,0,1.27,1.27,0,0,0,.28,0Zm5.73-24,1.1,0h.14Zm4.78,23.3a1,1,0,0,1-.18,0,1.2,1.2,0,0,0,.28,0Zm20.2-.19c-.19,0-.35,0-.54,0,.29,0,.58,0,.89,0Zm-.13-24.13H118c.19,0,.35,0,.53,0C118.27,176.32,118,176.3,117.72,176.31Zm4.15,8.88a1.15,1.15,0,0,1-.26,0,.5.5,0,0,1-.13,0A1,1,0,0,0,121.87,185.19Zm-.37,6.22.11,0,.27,0A1.23,1.23,0,0,0,121.5,191.41Zm3.7-11.92v0l0,0Zm8.09,20.26h0a2.06,2.06,0,0,0,.26,0A1.9,1.9,0,0,1,133.29,199.75Zm2.89-23.49.6,0H137ZM144,199.89a1.42,1.42,0,0,1-.2,0h0a1.72,1.72,0,0,0,.24,0Zm5.46-22.71a1.85,1.85,0,0,1,.23,0h0A2.51,2.51,0,0,0,149.5,177.18Zm3.22,23h-.06a1.17,1.17,0,0,0,.27,0A1.55,1.55,0,0,1,152.72,200.23Zm17.13-22a1,1,0,0,1,.17,0h.13A1,1,0,0,0,169.85,178.25Zm2.51,23.15h-.13a1,1,0,0,0,.3,0A1,1,0,0,1,172.36,201.4Zm9.84-22.15.16,0h.16A1.62,1.62,0,0,0,182.2,179.25Zm2.06,23.2h-.16a1.12,1.12,0,0,0,.32,0Zm7-22.21h0l.09,0Zm.25-.06.14,0h.19A1.76,1.76,0,0,0,191.53,180.18Zm1.66,23.23H193a1.76,1.76,0,0,0,.33,0Zm15.26,2a.82.82,0,0,1-.22,0,1.16,1.16,0,0,0,.32,0Zm3.85-22.58h.1l.24,0A2,2,0,0,0,212.3,182.8Zm8.39,24.47a1.18,1.18,0,0,1-.26,0,1.47,1.47,0,0,0,.36,0Zm.72-22Zm3.66-.89h0Zm6,24.71a1.1,1.1,0,0,1-.25,0,1,1,0,0,0,.25,0Zm8.83-21.61H240l.31,0A2.55,2.55,0,0,0,239.91,187.49Zm9.18,25.26a1.35,1.35,0,0,1-.33,0,1.33,1.33,0,0,0,.39,0Z"/><path class="b" d="M12.28,188.7c6-1.23,9,.77,10,6.05s-.92,8.17-6.78,9.37l-1.59.33a.89.89,0,0,0-.78,1.17l1.08,5.13a.87.87,0,0,1-.77,1.17l-3.64.79A.9.9,0,0,1,8.57,212Q6.31,201.74,4,191.51a.94.94,0,0,1,.8-1.22C7.31,189.75,9.8,189.22,12.28,188.7Zm2.24,9.86c1.6-.33,2.36-.68,2-2.68s-1.25-2-2.86-1.69l-1.81.37a.92.92,0,0,0-.81,1.18c.18.81.35,1.62.52,2.44a.92.92,0,0,0,1.2.75Z"/><path class="b" d="M42.79,205.36c.11.71-.15,1.15-.81,1.26l-3.67.59a.88.88,0,0,1-1.14-.8c-.16-.94-.32-1.88-.47-2.82a.89.89,0,0,0-1.16-.8l-2.83.49a.88.88,0,0,0-.82,1.14c.16.94.33,1.87.49,2.81a.88.88,0,0,1-.81,1.14l-3.66.67c-.62.11-1.05-.21-1.18-.92q-1.29-6.83-2.56-13.66c-.76-4.05-.9-8.54,6.78-9.88s9.05,3,9.69,7Q41.72,198.49,42.79,205.36Zm-7.94-12.8c-.26-1.55-.62-2.29-2.85-1.91s-2.33,1.21-2.06,2.76c.21,1.17.42,2.34.62,3.52a.92.92,0,0,0,1.18.79l2.86-.49a.93.93,0,0,0,.84-1.17C35.24,194.89,35.05,193.73,34.85,192.56Z"/><path class="b" d="M48.71,182.4A1.2,1.2,0,0,1,50,183q3.06,5.08,6.05,10.2c.17.28.43.18.39-.15q-.68-5.25-1.36-10.5a.91.91,0,0,1,.9-1.11l3.84-.48c.69-.08,1.07.21,1.14.86q1.24,10.41,2.48,20.84a.88.88,0,0,1-.87,1.09l-4.84.61a1.14,1.14,0,0,1-1.24-.6q-3-5.12-6-10.21c-.18-.27-.44-.17-.39.16l1.47,10.49a.89.89,0,0,1-.84,1.11l-3.68.53a.89.89,0,0,1-1.13-.82q-1.57-10.38-3.14-20.75a.91.91,0,0,1,.88-1.13Z"/><path class="b" d="M73,179.52c6.46-.62,8.8,1.72,9.23,7.07.2,2.39.4,4.77.59,7.16.44,5.36-1.4,8-7.59,8.62q-3.67.36-7.35.76a.91.91,0,0,1-1.1-.86q-1.17-10.43-2.35-20.83c-.07-.65.24-1,.92-1.12C67.87,180,70.42,179.77,73,179.52Zm1.78,17.22c1.6-.15,2.38-.49,2.19-2.45,0,0-.66-7.15-.67-7.18-.18-2-1-2.14-2.65-2l-1.84.19a.89.89,0,0,0-.91,1.08c.33,3.22.65,6.43,1,9.65a.91.91,0,0,0,1.1.88Z"/><path class="b" d="M102.39,199.27c0,.72-.28,1.13-.94,1.16l-3.7.2a.89.89,0,0,1-1-.93c-.06-.95-.11-1.9-.17-2.85a.87.87,0,0,0-1-.92l-2.87.18a.89.89,0,0,0-.93,1c.06,1,.12,1.9.19,2.85a.88.88,0,0,1-.93,1.05l-3.7.26c-.62.05-1-.31-1.07-1l-1.08-13.87c-.31-4.1,0-8.58,7.78-9.09s8.65,3.94,8.85,8Q102.05,192.33,102.39,199.27Zm-6.51-13.58c-.09-1.57-.37-2.34-2.62-2.2s-2.44.94-2.33,2.51l.24,3.57a.9.9,0,0,0,1.07.91l2.9-.18a.92.92,0,0,0,1-1.07Z"/><path class="b" d="M109.34,184.51c-.07-2.15.19-8,8.38-8.2,7.36-.13,8.51,4.59,8.66,7.1a.89.89,0,0,1-.75.93l-3.76.85a1.14,1.14,0,0,1-1.38-1c-.18-1.43-.81-2.28-2.66-2.24-2.53.05-2.66,1.6-2.6,4.12l.12,4.72c.06,2.53.27,4.06,2.74,4,1.83,0,2.32-.9,2.5-2.41a1,1,0,0,1,1.29-1l3.8.79a.87.87,0,0,1,.75.94c-.13,2.5-1.21,7.16-8.23,7.29-7.81.17-8.49-5.56-8.57-7.74C109.53,190,109.44,187.24,109.34,184.51Z"/><path class="b" d="M144.82,198.84c0,.72-.36,1.1-1,1.09l-3.71-.09a.88.88,0,0,1-1-1c0-1,0-1.9,0-2.85a.88.88,0,0,0-1-1l-2.87,0a.89.89,0,0,0-1,1c0,1,0,1.9,0,2.86a.87.87,0,0,1-1,1h-3.71c-.62,0-1-.4-1-1.12q0-6.94,0-13.9c0-4.12.67-8.56,8.44-8.48s8.33,4.58,8.21,8.7Zm-5.45-14c0-1.58-.2-2.37-2.45-2.4s-2.5.76-2.51,2.33l0,3.57a.92.92,0,0,0,1,1l2.89,0a.92.92,0,0,0,1-1C139.32,187.17,139.34,186,139.37,184.81Z"/><path class="b" d="M165.47,199.14a1.17,1.17,0,0,1-1.21,1.7l-3.76-.23a.83.83,0,0,1-.74-.5c-1-2.25-2.06-4.51-3.12-6.76a.36.36,0,0,0-.26-.18l-1.34-.06a1,1,0,0,0-1.08,1c-.08,1.73-.15,3.45-.23,5.18a1,1,0,0,1-1.07,1l-3.7-.15a1,1,0,0,1-1-1.05q.34-10.46.7-20.91a1,1,0,0,1,1.1-1q3.78.13,7.54.32c6.14.3,8.46,3,8.11,8.34-.2,3-1.11,5.11-3,6.25a.36.36,0,0,0-.13.42C163.39,194.69,164.44,196.92,165.47,199.14Zm-10-16.12a1,1,0,0,0-1.11,1c0,.81-.07,1.62-.1,2.42a1,1,0,0,0,1,1.07l1.73.08c1.62.08,2.44-.07,2.55-2.1s-.7-2.28-2.34-2.36Z"/><path class="b" d="M175.2,178.6a1.19,1.19,0,0,1,1.14.85q1.89,5.64,3.69,11.28c.11.3.39.26.42-.06.31-3.52.63-7,1-10.55a.91.91,0,0,1,1.12-.89l3.84.37c.69.07,1,.43.94,1.08q-1.06,10.44-2.11,20.88a.89.89,0,0,1-1.09.88c-1.61-.16-3.23-.31-4.84-.45a1.16,1.16,0,0,1-1.09-.86q-1.77-5.64-3.63-11.26c-.11-.31-.38-.26-.41.06q-.42,5.28-.83,10.56a.9.9,0,0,1-1.07.91l-3.7-.28a.89.89,0,0,1-.92-1.05l1.44-20.93a.9.9,0,0,1,1.1-.91C171.83,178.34,173.52,178.47,175.2,178.6Z"/><path class="b" d="M195.63,180.59a.89.89,0,0,1,.91,1.1q-1.22,10.42-2.44,20.84a.89.89,0,0,1-1.1.87l-3.62-.41a.89.89,0,0,1-.88-1.08L190.72,181a.91.91,0,0,1,1.14-.87Z"/><path class="b" d="M204,181.61a1.05,1.05,0,0,1,1,1q.69,6.44,1.3,12.88c0,.3.29.34.4,0q2.33-6,4.73-12a1,1,0,0,1,1.24-.68l4.07.61c.72.1,1,.55.72,1.2q-4.08,10-8,20.06a1,1,0,0,1-1.2.68l-6.11-.84a1,1,0,0,1-1-1q-1-10.74-2.28-21.48c-.09-.7.3-1.05,1-1Z"/><path class="b" d="M232,208.17c-.14.7-.54,1-1.19.91l-3.66-.67a.89.89,0,0,1-.81-1.14c.17-.94.33-1.87.5-2.81a.88.88,0,0,0-.82-1.14l-2.84-.49a.88.88,0,0,0-1.15.8l-.48,2.81a.87.87,0,0,1-1.14.81l-3.67-.6a1,1,0,0,1-.81-1.25l2.16-13.74c.64-4.07,2-8.35,9.69-7s7.54,5.83,6.78,9.88Q233.29,201.33,232,208.17Zm-3.22-14.72c.28-1.55.18-2.37-2.05-2.76s-2.59.36-2.85,1.91l-.6,3.53a.92.92,0,0,0,.84,1.14l2.87.49a.92.92,0,0,0,1.18-.82Z"/><path class="b" d="M244.09,188.27a.89.89,0,0,1,.82,1.17l-3.06,15a.9.9,0,0,0,.79,1.16c2.44.51,4.89,1,7.33,1.56a.89.89,0,0,1,.77,1.18c-.27,1.19-.53,2.39-.8,3.59a.87.87,0,0,1-1.18.74q-6.42-1.41-12.87-2.67a.9.9,0,0,1-.79-1.15q2-10.3,4-20.61a.92.92,0,0,1,1.21-.77Z"/><path class="c" d="M185.31,40c3.54-1.94,6.26-4.85,7.06-8.83.84-4.16,1.95-11.57-4.8-18.69C169.84-6.29,153,3.66,149.4,8.57c-3.92,4.65-2.87,9.64-2.3,13C150,32.4,166.93,47.37,185.31,40Z"/><path class="d" d="M175.27,43.45A29.86,29.86,0,0,1,162,40.21c-7.92-4-14.49-11.29-16.35-18.24l-.09-.53c-.61-3.51-1.53-8.81,2.66-13.8,2.06-2.79,8-7.08,15.92-7.59,5.93-.38,15,1.28,24.52,11.34,7.61,8,5.91,16.44,5.19,20-.83,4.09-3.53,7.5-7.82,9.85l-.16.08A28.23,28.23,0,0,1,175.27,43.45Zm-26.7-22.19c1.35,5,6.54,12.15,14.78,16.26a25.5,25.5,0,0,0,21.31,1.08c2.42-1.35,5.44-3.78,6.24-7.78,1-5.18,1.34-11.29-4.41-17.36C179.57,6.16,171.91,2.55,164.33,3c-6.91.45-12.08,4.17-13.72,6.41l-.06.09c-3.33,3.93-2.61,8.07-2,11.39Z"/><path class="c" d="M73.05,40C69.51,38,66.79,35.1,66,31.12,65.15,27,64,19.55,70.79,12.43,88.52-6.29,105.38,3.66,109,8.57c3.92,4.65,2.87,9.64,2.3,13C108.37,32.4,91.43,47.37,73.05,40Z"/><path class="d" d="M83.09,43.45a28.23,28.23,0,0,1-10.6-2.1l-.16-.08c-4.29-2.35-7-5.76-7.81-9.85-.73-3.59-2.43-12,5.18-20C79.24,1.33,88.3-.33,94.22.05c8,.51,13.86,4.8,15.92,7.59,4.19,5,3.27,10.29,2.66,13.8l-.09.53c-1.86,7-8.43,14.28-16.36,18.24A29.81,29.81,0,0,1,83.09,43.45ZM73.7,38.6A25.5,25.5,0,0,0,95,37.52c8.24-4.11,13.43-11.3,14.78-16.26l.06-.33c.57-3.32,1.29-7.46-2-11.39l-.06-.09C106.11,7.21,100.94,3.49,94,3c-7.56-.48-15.24,3.12-22.16,10.42-5.75,6.07-5.46,12.18-4.41,17.36C68.26,34.82,71.28,37.25,73.7,38.6Z"/><path class="d" d="M53.31,80.53c15-34.82,38-58.59,75.87-58.59s58.53,18.41,73.62,53.2c6,13.83,11,36.4-4.17,54-13.07,15.19-47.86,25.27-69.46,25.27-21.33,0-56.45-10-69-25.27C50.33,117.29,46.12,97.2,53.31,80.53Z"/><path class="d" d="M129.17,156.43c-20.08,0-56.77-9.26-70.58-26C47.38,116.85,44.46,96,51.48,79.73h0c17.36-40.23,42.77-59.79,77.7-59.79,36.34,0,58.91,16.27,75.46,54.4,4.41,10.17,12.81,36-4.49,56.12C187,145.76,152.18,156.43,129.17,156.43Zm-74-75.11h0C48,98,53,117.36,61.67,127.88c11.6,14.05,45.2,24.55,67.5,24.55,22.1,0,55.85-10.51,68-24.58,15.26-17.74,9-40.14,3.85-51.92-15.82-36.44-37.29-52-71.79-52C96,23.94,71.81,42.71,55.15,81.32Z"/><path class="c" d="M124.11,79.34a1.94,1.94,0,0,0-.6,2.32c.74,1.68,2.44,4.33,5.81,4.33s5-3,5.61-4.87a1.68,1.68,0,0,0-.84-2,12.25,12.25,0,0,0-5.33-1.43A7.91,7.91,0,0,0,124.11,79.34Z"/><path class="c" d="M98.24,84.53c1.72.2,14.22,3,21.19-15.31S111.18,46,107.27,46s-22.73-.38-31.51,23.27c-5.63,15.19-.68,22.13,3.76,21.16s8-3.56,11.67-5A12.82,12.82,0,0,1,98.24,84.53Z"/><path class="d" d="M98.22,73.89a16.27,16.27,0,0,0-2.15.42,3.62,3.62,0,0,1-4.14-1.79,8.21,8.21,0,1,1,15.5-3.77,8,8,0,0,1-.29,2.14,3.2,3.2,0,0,1-2.75,2.32Z"/><path class="c" d="M160.12,84.53c-1.72.2-14.22,3-21.19-15.31S147.18,46,151.09,46s22.73-.38,31.51,23.27c5.63,15.19.68,22.13-3.76,21.16s-8-3.56-11.67-5A12.82,12.82,0,0,0,160.12,84.53Z"/><path class="d" d="M160.14,73.89a16.27,16.27,0,0,1,2.15.42,3.62,3.62,0,0,0,4.14-1.79,8.21,8.21,0,1,0-15.5-3.77,8,8,0,0,0,.29,2.14A3.2,3.2,0,0,0,154,73.21Z"/><path class="c" d="M116.69,110.09c-11.17,0-20.24-9.2-20.62-9.59a3,3,0,0,1,4.31-4.18c.07.07,7.7,7.77,16.31,7.77,7.59,0,9.36-4.18,9.43-4.36a3,3,0,0,1,3.81-1.81,3,3,0,0,1,1.83,3.86C131.64,102.12,128.7,110.09,116.69,110.09Z"/><path class="c" d="M141.17,110.09c-12,0-14.95-8-15.07-8.31a3,3,0,0,1,5.64-2c.11.27,1.93,4.35,9.43,4.35,8.61,0,16.24-7.7,16.32-7.78a3,3,0,0,1,4.3,4.19C161.41,100.89,152.34,110.09,141.17,110.09Z"/></svg>