<svg xmlns="http://www.w3.org/2000/svg" viewBox="0 0 162.92 156.43"><defs><style>.a{fill:#231f20;}.b{fill:#fff;}</style></defs><path class="a" d="M137.62,40c3.54-1.94,6.27-4.85,7.07-8.83.84-4.16,1.95-11.57-4.8-18.69C122.15-6.29,105.3,3.66,101.71,8.57c-3.92,4.65-2.87,9.64-2.29,13C102.31,32.4,119.24,47.37,137.62,40Z" transform="translate(0 0)"/><path class="b" d="M127.58,43.45a29.81,29.81,0,0,1-13.26-3.24C106.39,36.25,99.82,28.92,98,22l-.1-.53c-.6-3.51-1.52-8.81,2.66-13.8,2.07-2.79,8-7.08,15.92-7.59,5.93-.38,15,1.28,24.53,11.34,7.6,8,5.9,16.44,5.18,20-.83,4.09-3.53,7.5-7.81,9.85l-.16.08A28.28,28.28,0,0,1,127.58,43.45ZM100.89,21.26c1.35,5,6.53,12.15,14.77,16.26A25.52,25.52,0,0,0,137,38.6c2.42-1.35,5.43-3.78,6.24-7.78,1-5.18,1.34-11.29-4.42-17.36C131.88,6.16,124.22,2.55,116.64,3c-6.91.45-12.08,4.17-13.71,6.41l-.07.09c-3.32,3.93-2.61,8.07-2,11.39Z" transform="translate(0 0)"/><path class="a" d="M25.37,40C21.82,38,19.1,35.1,18.3,31.12c-.84-4.16-1.95-11.57,4.8-18.69C40.84-6.29,57.69,3.66,61.28,8.57c3.92,4.65,2.87,9.64,2.29,13C60.68,32.4,43.75,47.37,25.37,40Z" transform="translate(0 0)"/><path class="b" d="M35.41,43.45a28.28,28.28,0,0,1-10.61-2.1l-.16-.08c-4.28-2.35-7-5.76-7.81-9.85-.72-3.59-2.42-12,5.18-20C31.55,1.33,40.62-.33,46.54.05c8,.51,13.85,4.8,15.92,7.59,4.18,5,3.26,10.29,2.66,13.8L65,22c-1.85,7-8.43,14.28-16.35,18.24A29.81,29.81,0,0,1,35.41,43.45ZM26,38.6a25.52,25.52,0,0,0,21.32-1.08c8.24-4.11,13.42-11.3,14.77-16.26l.06-.33c.58-3.32,1.29-7.46-2-11.39l-.07-.09c-1.63-2.24-6.8-6-13.71-6.41-7.57-.48-15.24,3.12-22.16,10.42-5.76,6.07-5.46,12.18-4.42,17.36C20.58,34.82,23.59,37.25,26,38.6Z" transform="translate(0 0)"/><path class="b" d="M5.63,80.53c15-34.82,37.94-58.59,75.86-58.59S140,40.35,155.12,75.14c6,13.83,11,36.4-4.17,54-13.07,15.19-47.86,25.27-69.47,25.27-21.33,0-56.44-10-69-25.27C2.65,117.29-1.56,97.2,5.63,80.53Z" transform="translate(0 0)"/><path class="b" d="M81.48,156.43c-20.07,0-56.76-9.26-70.58-26C-.3,116.85-3.23,96,3.79,79.73h0C21.15,39.5,46.57,19.94,81.49,19.94c36.35,0,58.91,16.27,75.46,54.4,4.42,10.17,12.82,36-4.48,56.12C139.3,145.76,104.49,156.43,81.48,156.43Zm-74-75.11h0C.28,98,5.3,117.36,14,127.88c11.59,14.05,45.19,24.55,67.49,24.55,22.1,0,55.85-10.51,68-24.58,15.26-17.74,9-40.14,3.85-51.92-15.81-36.44-37.28-52-71.79-52C48.34,23.94,24.12,42.71,7.47,81.32Z" transform="translate(0 0)"/><path class="a" d="M76.43,79.34a1.93,1.93,0,0,0-.61,2.32c.74,1.68,2.44,4.33,5.82,4.33s5-3,5.6-4.87a1.67,1.67,0,0,0-.84-2,12.2,12.2,0,0,0-5.32-1.43A7.89,7.89,0,0,0,76.43,79.34Z" transform="translate(0 0)"/><path class="a" d="M50.56,84.53c1.72.2,14.21,3,21.19-15.31S63.5,46,59.58,46s-22.73-.38-31.51,23.27c-5.63,15.19-.68,22.13,3.77,21.16s8-3.56,11.66-5A12.86,12.86,0,0,1,50.56,84.53Z" transform="translate(0 0)"/><path class="b" d="M50.53,73.89a15.83,15.83,0,0,0-2.14.42,3.61,3.61,0,0,1-4.14-1.79,8.15,8.15,0,0,1-.85-4.9,8.21,8.21,0,0,1,16.35,1.13,8,8,0,0,1-.29,2.14,3.21,3.21,0,0,1-2.75,2.32Z" transform="translate(0 0)"/><path class="a" d="M112.43,84.53c-1.72.2-14.21,3-21.19-15.31S99.49,46,103.41,46s22.73-.38,31.51,23.27c5.63,15.19.68,22.13-3.77,21.16s-8-3.56-11.66-5A12.86,12.86,0,0,0,112.43,84.53Z" transform="translate(0 0)"/><path class="b" d="M112.46,73.89a15.83,15.83,0,0,1,2.14.42,3.61,3.61,0,0,0,4.14-1.79,8.15,8.15,0,0,0,.85-4.9,8.21,8.21,0,0,0-16.35,1.13,8,8,0,0,0,.29,2.14,3.21,3.21,0,0,0,2.75,2.32Z" transform="translate(0 0)"/><path class="a" d="M69,110.09c-11.17,0-20.23-9.2-20.61-9.59a3,3,0,0,1,4.3-4.18c.07.07,7.7,7.77,16.31,7.77,7.59,0,9.36-4.18,9.44-4.36a3,3,0,0,1,3.81-1.81,3,3,0,0,1,1.83,3.86C84,102.12,81,110.09,69,110.09Z" transform="translate(0 0)"/><path class="a" d="M93.49,110.09c-12,0-15-8-15.08-8.31a3,3,0,0,1,5.65-2c.11.27,1.93,4.35,9.43,4.35,8.6,0,16.24-7.7,16.31-7.78a3,3,0,0,1,4.3,4.19C113.72,100.89,104.66,110.09,93.49,110.09Z" transform="translate(0 0)"/></svg>