<?xml version="1.0" encoding="utf-8"?>
<!-- Generator: Adobe Illustrator 26.0.3, SVG Export Plug-In . SVG Version: 6.00 Build 0)  -->
<svg version="1.1" id="Layer_1" xmlns="http://www.w3.org/2000/svg" xmlns:xlink="http://www.w3.org/1999/xlink" x="0px" y="0px"
	 viewBox="0 0 162.9 156.4" style="enable-background:new 0 0 162.9 156.4;" xml:space="preserve">
<style type="text/css">
	.st0{fill:#221E1F;stroke:#FFFFFF;stroke-width:3;stroke-miterlimit:10;}
	.st1{fill:#FFFFFF;stroke:#FFFFFF;stroke-width:4;stroke-linecap:round;stroke-miterlimit:10;}
	.st2{fill:#221E1F;}
	.st3{fill:#FFFFFF;}
</style>
<g>
	<g>
		<g>
			<path class="st0" d="M137.6,40.2c3.5-1.9,6.3-4.9,7.1-8.8c0.8-4.2,1.9-11.6-4.8-18.7C122.1-6,105.3,3.9,101.7,8.8
				c-3.9,4.6-2.9,9.6-2.3,13C102.3,32.7,119.2,47.6,137.6,40.2z"/>
			<path class="st0" d="M25.3,40.2c-3.5-1.9-6.3-4.9-7.1-8.8c-0.8-4.2-1.9-11.6,4.8-18.7C40.8-6,57.7,3.9,61.2,8.8
				c3.9,4.6,2.9,9.6,2.3,13C60.6,32.7,43.7,47.6,25.3,40.2z"/>
		</g>
	</g>
	<path class="st1" d="M5.6,80.8c15-34.8,37.9-58.6,75.9-58.6s58.5,18.4,73.6,53.2c6,13.8,11,36.4-4.2,54
		c-13.1,15.2-47.9,25.3-69.5,25.3c-21.3,0-56.4-10-69-25.3C2.6,117.5-1.6,97.5,5.6,80.8z"/>
	<g>
		<g>
			<path class="st2" d="M50.5,84.8c1.7,0.2,14.2,3,21.2-15.3c7-18.3-8.3-23.3-12.2-23.3S36.8,45.8,28,69.5
				c-5.6,15.2-0.7,22.1,3.8,21.2c4.4-1,8-3.6,11.7-5C46.1,84.7,47.7,84.4,50.5,84.8z"/>
			<path class="st3" d="M50.5,74.1c-0.7,0.1-1.4,0.2-2.1,0.4c-1.6,0.4-3.4-0.3-4.1-1.8c-0.7-1.4-1.1-3.1-0.8-4.9
				c0.5-3.7,3.5-6.6,7.2-7c5-0.6,9.2,3.3,9.2,8.2c0,0.7-0.1,1.5-0.3,2.1c-0.3,1.3-1.5,2.2-2.8,2.3C54.4,73.7,52.1,74,50.5,74.1z"/>
		</g>
		<g>
			<path class="st2" d="M112.4,84.8c-1.7,0.2-14.2,3-21.2-15.3c-7-18.3,8.3-23.3,12.2-23.3s22.7-0.4,31.5,23.3
				c5.6,15.2,0.7,22.1-3.8,21.2c-4.4-1-8-3.6-11.7-5C116.9,84.7,115.2,84.4,112.4,84.8z"/>
			<path class="st3" d="M112.4,74.1c0.7,0.1,1.4,0.2,2.1,0.4c1.6,0.4,3.4-0.3,4.1-1.8c0.7-1.4,1.1-3.1,0.8-4.9
				c-0.5-3.7-3.5-6.6-7.2-7c-5-0.6-9.2,3.3-9.2,8.2c0,0.7,0.1,1.5,0.3,2.1c0.3,1.3,1.5,2.2,2.8,2.3C108.5,73.7,110.8,74,112.4,74.1z
				"/>
		</g>
	</g>
	<path class="st2" d="M114.4,98.1c-1-1.8-2.2-2.7-3-3.2c-0.4-0.3-0.9-0.5-1.4-0.5c-1.4,0-2.5,1.1-2.5,2.5c0,0.9,0.4,1.6,1.1,2.1
		c-2.9,1.7-13.3,7.3-26.9,7.3c-13.6,0-24.1-5.7-27-7.5c0.5-0.5,0.8-1.1,0.8-1.8c0-1.4-1.1-2.5-2.5-2.5c-0.5,0-1,0.2-1.4,0.5
		c-0.8,0.5-2.1,1.4-3,3.2c-1.4,2.5-1.2,5-1.1,5.3c0,0.4,0.2,0.8,0.4,1.1c0,0,0.1,0.1,0.1,0.1c0,0,0.1,0.1,0.1,0.1
		c0.5,0.6,1.2,0.9,1.9,0.9c1.4,0,2.5-1.1,2.5-2.5c3.7,2.2,14.7,8.1,29.3,8.1c14.3,0,25-5.4,28.9-7.6c0.2,1.2,1.2,2.1,2.4,2.1
		c0.8,0,1.5-0.4,1.9-0.9c0,0,0.1-0.1,0.1-0.1c0,0,0.1-0.1,0.1-0.1c0.2-0.3,0.4-0.7,0.4-1.1C115.6,103.1,115.8,100.6,114.4,98.1z"/>
	<path class="st2" d="M76.4,79.6c-0.7,0.5-1,1.5-0.6,2.3c0.7,1.7,2.4,4.3,5.8,4.3c3.5,0,5-3,5.6-4.9c0.3-0.8-0.1-1.7-0.8-2
		c-1.2-0.6-3.2-1.4-5.3-1.4C79,77.9,77.4,78.8,76.4,79.6z"/>
</g>
</svg>
